<svg viewBox="0 0 200 200" xmlns="http://www.w3.org/2000/svg">
  <rect width="200" height="200" rx="28" fill="#14171C"></rect>
  <path d="M100 45 C 70 45, 48 67, 48 97 C 48 121, 63 141, 84 148&#xA;           C 87 149, 88 147, 88 145 L 88 133&#xA;           C 71 137, 67 125, 67 125 C 64 118, 60 116, 60 116&#xA;           C 54 112, 61 112, 61 112 C 68 113, 72 120, 72 120&#xA;           C 78 130, 88 127, 92 125 C 93 120, 95 117, 97 115&#xA;           C 82 113, 66 107, 66 82 C 66 75, 68 69, 73 65&#xA;           C 72 62, 70 54, 74 44 C 74 44, 81 42, 88 51&#xA;           C 92 50, 108 50, 112 51 C 119 42, 126 44, 126 44&#xA;           C 130 54, 128 62, 127 65 C 132 69, 134 75, 134 82&#xA;           C 134 107, 118 113, 103 115 C 106 118, 108 122, 108 129&#xA;           L 108 145 C 108 147, 109 149, 112 148&#xA;           C 133 141, 148 121, 148 97 C 148 67, 126 45, 100 45 Z" fill="#EDEAE2"></path>
</svg>