<svg viewBox="0 0 200 200" xmlns="http://www.w3.org/2000/svg">
  <rect width="200" height="200" rx="28" fill="#14171C"></rect>
  <path d="M100 90&#xA;           C 90 60, 60 45, 45 55&#xA;           C 35 62, 40 85, 65 95&#xA;           C 45 92, 30 100, 32 112&#xA;           C 34 124, 55 128, 75 118&#xA;           C 85 113, 95 104, 100 118&#xA;           C 105 104, 115 113, 125 118&#xA;           C 145 128, 166 124, 168 112&#xA;           C 170 100, 155 92, 135 95&#xA;           C 160 85, 165 62, 155 55&#xA;           C 140 45, 110 60, 100 90 Z" fill="#E8A33D"></path>
</svg>